<?xml version="1.0" encoding="UTF-8"?>
<svg version="1.1" xmlns="http://www.w3.org/2000/svg" width="512" height="512">
<path d="M0 0 C0.96988861 0.00182281 1.93977722 0.00364563 2.9390564 0.00552368 C17.29056055 0.05091691 31.25442918 0.5562653 45.375 3.3125 C46.72053955 3.55395752 46.72053955 3.55395752 48.09326172 3.80029297 C87.52604582 10.93561858 124.81713038 27.65850952 156.375 52.3125 C157.34695313 53.07175781 158.31890625 53.83101562 159.3203125 54.61328125 C174.69991644 66.94763598 189.25265196 80.74854501 201.375 96.3125 C202.52162109 97.71628906 202.52162109 97.71628906 203.69140625 99.1484375 C229.53090349 131.41670211 246.00194712 170.83215349 253.375 211.3125 C253.53871094 212.14813477 253.70242188 212.98376953 253.87109375 213.84472656 C259.1637992 241.56581812 258.77440744 273.65059037 253.375 301.3125 C253.21402832 302.20952637 253.05305664 303.10655273 252.88720703 304.03076172 C244.99694853 347.63561969 225.30735057 388.77240471 196.375 422.3125 C195.74078125 423.05757813 195.1065625 423.80265625 194.453125 424.5703125 C182.64198485 438.07529833 169.89139772 450.74668743 155.375 461.3125 C154.22505169 462.16899066 153.07531411 463.02576433 151.92578125 463.8828125 C143.73410474 469.9234414 135.21854922 475.28255071 126.375 480.3125 C125.74319824 480.67698242 125.11139648 481.04146484 124.46044922 481.41699219 C98.43166464 496.31500327 69.01361377 505.96041257 39.375 510.3125 C38.17254639 510.48910156 36.97009277 510.66570312 35.73120117 510.84765625 C24.01493596 512.45161689 12.37584274 512.71324553 0.5625 512.6875 C-0.42433777 512.68662384 -1.41117554 512.68574768 -2.42791748 512.68484497 C-67.38219852 512.49532667 -129.79571624 487.41579016 -176.625 442.3125 C-177.28435547 441.68037598 -177.94371094 441.04825195 -178.62304688 440.39697266 C-188.11130305 431.25252521 -196.8512044 421.95515991 -204.625 411.3125 C-205.48306152 410.16144983 -206.34113451 409.01040823 -207.19921875 407.859375 C-213.23736829 399.66819386 -218.59595521 391.15445895 -223.625 382.3125 C-223.98948242 381.68069824 -224.35396484 381.04889648 -224.72949219 380.39794922 C-239.65973018 354.31285999 -249.13885054 324.97664886 -253.625 295.3125 C-253.88990234 293.62882324 -253.88990234 293.62882324 -254.16015625 291.91113281 C-255.8170586 280.29802257 -256.02373513 268.78070055 -256 257.0625 C-255.99945618 256.05048523 -255.99891235 255.03847046 -255.99835205 253.99578857 C-255.9576051 237.46132605 -255.03386907 221.54185136 -251.625 205.3125 C-251.41601074 204.29720215 -251.20702148 203.2819043 -250.99169922 202.23583984 C-242.21380189 160.92383315 -223.21113066 122.2919774 -195.625 90.3125 C-194.99078125 89.56742187 -194.3565625 88.82234375 -193.703125 88.0546875 C-181.89198485 74.54970167 -169.14139772 61.87831257 -154.625 51.3125 C-153.47505169 50.45600934 -152.32531411 49.59923567 -151.17578125 48.7421875 C-142.98410474 42.7015586 -134.46854922 37.34244929 -125.625 32.3125 C-124.99319824 31.94801758 -124.36139648 31.58353516 -123.71044922 31.20800781 C-97.68104716 16.30964331 -68.26389511 6.66602458 -38.625 2.3125 C-37.42037109 2.13517334 -36.21574219 1.95784668 -34.97460938 1.77514648 C-23.31732646 0.176175 -11.75313902 -0.0459053 0 0 Z M-6.625 151.3125 C-7.95144531 152.47845703 -7.95144531 152.47845703 -9.3046875 153.66796875 C-15.22190327 158.98090652 -20.94924401 164.49310401 -26.625 170.0625 C-27.26002441 170.67609375 -27.89504883 171.2896875 -28.54931641 171.921875 C-33.27700395 176.61542305 -37.60858358 181.38229743 -38.125 188.3125 C-37.87106674 192.680152 -36.38575178 195.94489566 -33.625 199.3125 C-29.47048845 202.82075419 -26.07427633 204.21689866 -20.625 204.3125 C-9.06243048 200.94884341 -0.60702801 189.33806942 7.421875 180.96289062 C18.3531104 169.81527446 29.34243468 164.15689055 44.9375 163.0625 C58.40623639 163.32352202 70.75582315 168.16608968 80.59765625 177.34375 C90.68166712 188.51373127 93.93797393 202.68264381 93.2265625 217.37890625 C91.22615281 234.07121374 80.85187816 246.01979748 68.45703125 256.49609375 C58.35768353 265.09055545 58.35768353 265.09055545 52.5 276.625 C52.32571011 281.76655169 53.28295062 286.00383515 56.80859375 289.89453125 C61.09024739 293.5996031 64.48807556 294.41062844 70.046875 294.73828125 C78.72694272 293.1508192 84.71935342 285.4399449 90.625 279.4375 C91.13667725 278.92050537 91.64835449 278.40351074 92.17553711 277.87084961 C104.07905394 265.82173542 114.31967423 254.34727326 120.375 238.3125 C120.808125 237.178125 121.24125 236.04375 121.6875 234.875 C127.89035464 215.57722999 125.57850165 193.98286813 116.77734375 175.92578125 C106.04415796 155.9243849 90.23813706 141.87407475 68.4375 135 C42.3930187 127.35124899 13.70796983 133.12943199 -6.625 151.3125 Z M16.29980469 218.12890625 C15.27918442 219.14426956 15.27918442 219.14426956 14.23794556 220.18014526 C12.00254975 222.40677741 9.77450346 224.64059906 7.546875 226.875 C5.99111668 228.42941045 4.43506162 229.98352395 2.87872314 231.53735352 C-0.3757802 234.78891313 -3.62665056 238.0440507 -6.875 241.30175781 C-11.0401283 245.4782991 -15.21419612 249.64577242 -19.39101028 253.81062317 C-22.60304442 257.01543469 -25.81030524 260.224989 -29.01613617 263.43600464 C-30.55366943 264.97487229 -32.0926904 266.512255 -33.63321686 268.04812622 C-35.78281343 270.19264905 -37.92590342 272.34346933 -40.06738281 274.49609375 C-41.02428513 275.44692337 -41.02428513 275.44692337 -42.0005188 276.41696167 C-42.58358795 277.00567047 -43.1666571 277.59437927 -43.76739502 278.20092773 C-44.27396259 278.70824936 -44.78053017 279.21557098 -45.30244827 279.73826599 C-48.76820264 283.86355522 -49.06051814 287.61547903 -48.9375 292.84375 C-48.3052834 297.83826116 -45.59664099 300.43339625 -42 303.6875 C-37.53652634 305.83657991 -33.49478591 306.32208976 -28.625 305.3125 C-23.58424754 302.33181028 -19.66276294 298.63548921 -15.54980469 294.49609375 C-14.86939117 293.81918488 -14.18897766 293.142276 -13.48794556 292.44485474 C-11.25254975 290.21822259 -9.02450346 287.98440094 -6.796875 285.75 C-5.24111668 284.19558955 -3.68506162 282.64147605 -2.12872314 281.08764648 C1.1257802 277.83608687 4.37665056 274.5809493 7.625 271.32324219 C11.7901283 267.1467009 15.96419612 262.97922758 20.14101028 258.81437683 C23.35304442 255.60956531 26.56030524 252.400011 29.76613617 249.18899536 C31.30366943 247.65012771 32.8426904 246.112745 34.38321686 244.57687378 C36.53281343 242.43235095 38.67590342 240.28153067 40.81738281 238.12890625 C41.45531769 237.49501984 42.09325256 236.86113342 42.7505188 236.20803833 C43.33358795 235.61932953 43.9166571 235.03062073 44.51739502 234.42407227 C45.02396259 233.91675064 45.53053017 233.40942902 46.05244827 232.88673401 C49.51820264 228.76144478 49.81051814 225.00952097 49.6875 219.78125 C49.0552834 214.78673884 46.34664099 212.19160375 42.75 208.9375 C31.32659331 203.43734122 24.07580952 210.30291894 16.29980469 218.12890625 Z M-91 234.3125 C-91.92321045 235.24803711 -92.8464209 236.18357422 -93.79760742 237.14746094 C-113.11053443 256.93550536 -124.59707117 276.88094939 -124.625 305.3125 C-123.31216216 327.32043607 -113.64052776 346.46352897 -97.625 361.3125 C-80.53974809 376.02003393 -59.24000804 382.42502983 -36.96484375 381.09375 C-13.7955556 378.37717056 2.17263453 367.43269568 18.30273438 351.37011719 C20.32324447 349.36388968 22.36828418 347.3863528 24.421875 345.4140625 C25.67812188 344.19377658 26.93337983 342.9724715 28.1875 341.75 C28.75605713 341.2031958 29.32461426 340.6563916 29.91040039 340.09301758 C34.41616993 335.62142927 38.39514134 330.88731731 38.875 324.3125 C38.62106674 319.944848 37.13575178 316.68010434 34.375 313.3125 C30.22048845 309.80424581 26.82427633 308.40810134 21.375 308.3125 C9.81243048 311.67615659 1.35702801 323.28693058 -6.671875 331.66210938 C-17.8537611 343.0653378 -28.73569876 348.61932216 -44.71484375 349.37109375 C-58.11898334 349.17023252 -70.03629217 344.43049749 -79.84765625 335.28125 C-89.93166712 324.11126873 -93.18797393 309.94235619 -92.4765625 295.24609375 C-90.47615281 278.55378626 -80.10187816 266.60520252 -67.70703125 256.12890625 C-57.60768353 247.53444455 -57.60768353 247.53444455 -51.75 236 C-51.57571011 230.85844831 -52.53295062 226.62116485 -56.05859375 222.73046875 C-60.21228349 219.13612875 -63.90056998 217.81090878 -69.40625 217.91625977 C-78.00539797 219.45195708 -85.19147738 228.41012904 -91 234.3125 Z " fill="#2096F3" transform="translate(255.625,-0.3125)"/>
</svg>
